<svg width="200" height="22" viewBox="0 0 200 22" fill="none"
    xmlns="http://www.w3.org/2000/svg">
    <path d="M3.19663 21.2235V3.48485H0V0H11.0834V3.48485H7.91298V21.2235H3.19663Z" fill="black"/>
    <path d="M12.7947 21.2235V0H17.4587V21.2235H12.7947Z" fill="black"/>
    <path d="M18.8302 21.2235V17.9221C19.4241 17.9221 19.9044 17.8872 20.2713 17.8173C20.6381 17.73 20.9263 17.5378 21.1359 17.2409C21.3456 16.9439 21.5115 16.4897 21.6338 15.8784C21.756 15.267 21.8521 14.446 21.922 13.4154C22.0093 12.3848 22.1141 11.0747 22.2364 9.48509L22.9177 0H34.1583V21.2235H29.4943V3.58966H27.1624L26.7431 10.376C26.6209 12.1228 26.4986 13.6337 26.3763 14.9089C26.254 16.1666 26.0532 17.2234 25.7737 18.0793C25.5117 18.9352 25.1099 19.6078 24.5684 20.0969C24.0443 20.5685 23.3194 20.8917 22.3936 21.0663C21.4678 21.241 20.28 21.2934 18.8302 21.2235Z" fill="black"/>
    <path d="M37.4139 21.2235V0H46.9514V3.19663H42.104V8.46322H45.7985V11.7123H42.104V18.0531H47.0038V21.2235H37.4139Z" fill="black"/>
    <path d="M49.2117 21.2235V0H59.0374V3.48485H53.9018V21.2235H49.2117Z" fill="black"/>
    <path d="M61.2617 21.2235V0H70.7992V3.19663H65.9518V8.46322H69.6463V11.7123H65.9518V18.0531H70.8516V21.2235H61.2617Z" fill="black"/>
    <path d="M73.0595 21.2235V0H77.7497V8.59423H81.0249V0H85.7412V21.2235H81.0249V11.9481H77.7497V21.2235H73.0595Z" fill="black"/>
    <path d="M95.6773 21.2235V0H105.215V3.19663H100.367V8.46322H104.062V11.7123H100.367V18.0531H105.267V21.2235H95.6773Z" fill="black"/>
    <path d="M107.397 21.2235V0H114.523C115.799 0 116.847 0.244551 117.668 0.733653C118.489 1.20529 119.1 1.90401 119.502 2.82981C119.904 3.73814 120.104 4.84735 120.104 6.15745C120.104 7.79944 119.834 9.05713 119.292 9.93052C118.751 10.7865 118.017 11.3804 117.091 11.7123C116.165 12.0441 115.126 12.2101 113.973 12.2101H112.087V21.2235H107.397ZM112.087 8.93485H113.659C114.235 8.93485 114.672 8.83004 114.969 8.62043C115.266 8.41081 115.458 8.09639 115.545 7.67716C115.65 7.25793 115.703 6.72516 115.703 6.07884C115.703 5.53734 115.659 5.0657 115.572 4.66394C115.502 4.24471 115.318 3.91282 115.021 3.66827C114.724 3.42372 114.261 3.30144 113.633 3.30144H112.087V8.93485Z" fill="black"/>
    <path d="M122.444 21.2235V0H127.134V8.41081H127.606L130.724 0H135.388L131.51 9.95673L135.519 21.2235H130.698L127.606 11.9743H127.134V21.2235H122.444Z" fill="black"/>
    <path d="M137.203 21.2235V0H141.867V21.2235H137.203Z" fill="black"/>
    <path d="M144.705 21.2235V0H149.396V8.59423H152.671V0H157.387V21.2235H152.671V11.9481H149.396V21.2235H144.705Z" fill="black"/>
    <path d="M160.698 21.2235V0H171.231V3.56346H165.388V8.96105H166.384C167.729 8.96105 168.864 9.1794 169.79 9.6161C170.733 10.0528 171.449 10.7253 171.938 11.6336C172.427 12.5245 172.672 13.6774 172.672 15.0923C172.672 16.3849 172.497 17.433 172.148 18.2365C171.816 19.0401 171.344 19.6602 170.733 20.0969C170.122 20.5336 169.406 20.8305 168.585 20.9877C167.781 21.1449 166.908 21.2235 165.964 21.2235H160.698ZM165.388 18.1579H165.991C166.584 18.1579 167.056 18.0444 167.405 17.8173C167.755 17.5902 167.999 17.2409 168.139 16.7692C168.279 16.2976 168.34 15.7037 168.323 14.9875C168.305 14.2014 168.139 13.5464 167.825 13.0223C167.51 12.4808 166.881 12.2101 165.938 12.2101H165.388V18.1579Z" fill="black"/>
    <path d="M175.127 21.2235V0H184.665V3.19663H179.818V8.46322H183.512V11.7123H179.818V18.0531H184.717V21.2235H175.127Z" fill="black"/>
    <path d="M186.925 21.2235V0H191.615V8.41081H192.087L195.205 0H199.869L195.991 9.95673L200 21.2235H195.179L192.087 11.9743H191.615V21.2235H186.925Z" fill="black"/>
</svg>
